<?xml version="1.0" encoding="utf-8"?>
<!-- Generator: Adobe Illustrator 21.0.0, SVG Export Plug-In . SVG Version: 6.00 Build 0)  -->
<svg version="1.1" id="Layer_1" xmlns="http://www.w3.org/2000/svg" xmlns:xlink="http://www.w3.org/1999/xlink" x="0px" y="0px"
	 viewBox="0 0 44 44" style="enable-background:new 0 0 44 44;" xml:space="preserve">
<style type="text/css">
	.st0{fill:#00958F;}
</style>
<g id="strawberry">
</g>
<g id="grapes">
</g>
<g id="bread">
</g>
<g id="cheese">
</g>
<g id="ice_x5F_cream">
</g>
<g id="chicken">
</g>
<g id="egg">
</g>
<g id="avocado">
</g>
<g id="carrot">
</g>
<g id="coffee">
</g>
<g id="wine">
</g>
<g id="orange">
</g>
<g id="beer">
</g>
<g id="burger">
</g>
<g id="milk">
</g>
<g id="alcohol">
</g>
<g id="onion">
</g>
<g id="pizza">
</g>
<g id="apple">
</g>
<g id="gluten">
</g>
<g id="fridge">
</g>
<g id="cleaver">
</g>
<g id="grater">
</g>
<g id="microwave">
</g>
<g id="toaster">
</g>
<g id="pot">
</g>
<g id="french_x5F_press">
</g>
<g id="blender">
</g>
<g id="cutlery">
</g>
<g id="slicer">
</g>
<g id="grinder">
</g>
<g id="weight">
</g>
<g id="mixer">
</g>
<g id="dishwasher">
</g>
<g id="kettle">
</g>
<g id="tea">
</g>
<g id="chef">
	<g>
		<circle class="st0" cx="19" cy="15" r="1"/>
		<circle class="st0" cx="25" cy="15" r="1"/>
		<circle class="st0" cx="18" cy="34" r="1"/>
		<circle class="st0" cx="26" cy="34" r="1"/>
		<circle class="st0" cx="18" cy="38" r="1"/>
		<circle class="st0" cx="26" cy="38" r="1"/>
		<path class="st0" d="M21,21h2c0.6,0,1-0.4,1-1s-0.4-1-1-1h-2c-0.6,0-1,0.4-1,1S20.4,21,21,21z"/>
		<path class="st0" d="M35,29.4L28.2,28c-0.5-0.1-1.1,0.2-1.2,0.8c-0.1,0.5,0.2,1.1,0.8,1.2l6.8,1.4c1.4,0.3,2.4,1.5,2.4,2.9V41
			c0,0.6-0.4,1-1,1H8c-0.6,0-1-0.4-1-1v-6.7c0-1.4,1-2.7,2.4-2.9l6.7-1.3H24c0.6,0,1-0.4,1-1s-0.4-1-1-1h-8c-0.1,0-0.1,0-0.2,0
			L9,29.4c-2.3,0.5-4,2.5-4,4.9V41c0,1.7,1.3,3,3,3h28c1.7,0,3-1.3,3-3v-6.7C39,31.9,37.3,29.8,35,29.4z"/>
		<path class="st0" d="M12,9v2c0,2,0.7,6.7,0.8,6.8c0.2,1.7,0.9,3.3,1.9,4.6l0.2,0.3c1.7,2.1,4.3,3.3,7.1,3.3s5.3-1.2,7.1-3.3
			l0.2-0.3c1.1-1.3,1.7-2.9,1.9-4.5c0,0,0.3-1.9,0.5-3.8c0.1-0.5-0.3-1-0.9-1.1s-1,0.3-1.1,0.9c-0.2,1.8-0.5,3.7-0.5,3.7
			c-0.1,1.3-0.7,2.5-1.5,3.5l-0.2,0.3C26.2,23.1,24.2,24,22,24s-4.2-0.9-5.5-2.6l-0.2-0.3c-0.8-1-1.4-2.2-1.5-3.6
			c0,0-0.8-4.7-0.8-6.6V8.4c0-0.4-0.2-0.7-0.5-0.9C12.6,7.1,12,6.1,12,5c0-1.7,1.3-3,3-3c0.6,0,1-0.4,1-1s-0.4-1-1-1
			c-2.8,0-5,2.2-5,5C10,6.6,10.8,8.1,12,9z"/>
		<path class="st0" d="M18,6c0.6,0,1-0.4,1-1c0-1.7,1.3-3,3-3c0.6,0,1-0.4,1-1s-0.4-1-1-1c-2.8,0-5,2.2-5,5C17,5.6,17.4,6,18,6z"/>
		<path class="st0" d="M15,11.4c-0.1,0.5,0.3,1.1,0.8,1.1c2,0.3,4,0.4,6.1,0.4c3.2,0,6.5-0.3,9.3-1c0.4-0.1,0.8-0.5,0.8-1v-2
			c1.2-0.9,2-2.4,2-4c0-2.8-2.2-5-5-5c-1.8,0-3.5,1-4.4,2.6C24.2,3.4,24,4.2,24,5c0,0.6,0.4,1,1,1s1-0.4,1-1c0-0.5,0.1-1,0.4-1.4
			C26.9,2.6,27.9,2,29,2c1.7,0,3,1.3,3,3c0,1.1-0.6,2.1-1.5,2.6C30.2,7.8,30,8.1,30,8.5v1.7c-4.2,0.9-9.3,1-13.9,0.4
			C15.6,10.5,15.1,10.9,15,11.4z"/>
	</g>
</g>
<g id="coffee_x5F_maker">
</g>
<g id="corkscrew">
</g>
<g id="dish">
</g>
</svg>
