<?xml version="1.0" encoding="utf-8"?>
<!-- Generator: Adobe Illustrator 21.0.0, SVG Export Plug-In . SVG Version: 6.00 Build 0)  -->
<svg version="1.1" id="Layer_1" xmlns="http://www.w3.org/2000/svg" xmlns:xlink="http://www.w3.org/1999/xlink" x="0px" y="0px"
	 viewBox="0 0 44 44" style="enable-background:new 0 0 44 44;" xml:space="preserve">
<style type="text/css">
	.st0{fill:#FFFFFF;}
</style>
<g>
	<circle class="st0" cx="22" cy="30" r="1"/>
	<path class="st0" d="M40,26c0-0.6-0.4-1-1-1H5c-0.6,0-1,0.4-1,1s0.4,1,1,1h34C39.6,27,40,26.6,40,26z"/>
	<path class="st0" d="M41,3H3C1.3,3,0,4.3,0,6v26c0,1.7,1.3,3,3,3h11c0.6,0,1-0.4,1-1s-0.4-1-1-1H3c-0.6,0-1-0.4-1-1V6
		c0-0.6,0.4-1,1-1h38c0.6,0,1,0.4,1,1v26c0,0.6-0.4,1-1,1H18c-0.6,0-1,0.4-1,1v4c0,0.6-0.4,1-1,1h-1c-0.6,0-1,0.4-1,1s0.4,1,1,1h14
		c0.6,0,1-0.4,1-1s-0.4-1-1-1h-1c-0.6,0-1-0.4-1-1v-3h14c1.7,0,3-1.3,3-3V6C44,4.3,42.7,3,41,3z M25.2,39h-6.4
		c0.1-0.3,0.2-0.6,0.2-1v-3h6v3C25,38.4,25.1,38.7,25.2,39z"/>
</g>
</svg>
