<?xml version="1.0" encoding="utf-8"?>
<!-- Generator: Adobe Illustrator 21.0.0, SVG Export Plug-In . SVG Version: 6.00 Build 0)  -->
<svg version="1.1" id="Layer_1" xmlns="http://www.w3.org/2000/svg" xmlns:xlink="http://www.w3.org/1999/xlink" x="0px" y="0px"
	 viewBox="0 0 44 44" style="enable-background:new 0 0 44 44;" xml:space="preserve">
<style type="text/css">
	.st0{fill:#00958F;}
</style>
<g id="strawberry">
</g>
<g id="grapes">
</g>
<g id="bread">
</g>
<g id="cheese">
</g>
<g id="ice_x5F_cream">
</g>
<g id="chicken">
</g>
<g id="egg">
</g>
<g id="avocado">
</g>
<g id="carrot">
</g>
<g id="coffee">
</g>
<g id="wine">
</g>
<g id="orange">
</g>
<g id="beer">
</g>
<g id="burger">
</g>
<g id="milk">
</g>
<g id="alcohol">
</g>
<g id="onion">
</g>
<g id="pizza">
</g>
<g id="apple">
</g>
<g id="gluten">
</g>
<g id="fridge">
</g>
<g id="cleaver">
</g>
<g id="grater">
</g>
<g id="microwave">
</g>
<g id="toaster">
</g>
<g id="pot">
</g>
<g id="french_x5F_press">
</g>
<g id="blender">
</g>
<g id="cutlery">
</g>
<g id="slicer">
</g>
<g id="grinder">
</g>
<g id="weight">
</g>
<g id="mixer">
</g>
<g id="dishwasher">
</g>
<g id="kettle">
</g>
<g id="tea">
</g>
<g id="chef">
</g>
<g id="coffee_x5F_maker">
</g>
<g id="corkscrew">
</g>
<g id="dish">
	<g>
		<path class="st0" d="M21,10.8V12c0,0.6,0.4,1,1,1c9.4,0,17,7.6,17,17c0,0.6,0.4,1,1,1s1-0.4,1-1c0-10.1-8-18.5-18-19v-0.2
			c1.2-0.4,2-1.5,2-2.8c0-1.7-1.3-3-3-3s-3,1.3-3,3C19,9.3,19.8,10.4,21,10.8z M22,7c0.6,0,1,0.4,1,1s-0.4,1-1,1s-1-0.4-1-1
			S21.4,7,22,7z"/>
		<path class="st0" d="M18.8,15.3c-2.9,0.6-5.4,2.1-7.5,4.2c-0.4,0.4-0.4,1,0,1.4c0.2,0.2,0.4,0.3,0.7,0.3s0.5-0.1,0.7-0.3
			c1.8-1.8,4-3.1,6.5-3.6c0.5-0.1,0.9-0.7,0.8-1.2C19.9,15.6,19.3,15.2,18.8,15.3z"/>
		<path class="st0" d="M43.6,35c-0.6-1.2-1.9-2-3.2-2H8c-0.6,0-1,0.4-1,1s0.4,1,1,1h32.4c0.6,0,1.2,0.3,1.4,0.9
			c0.1,0.2,0.2,0.5,0.2,0.7V37H2v-0.4c0-0.2,0.1-0.5,0.2-0.7C2.4,35.3,3,35,3.6,35H4c0.6,0,1-0.4,1-1v-4c0-8,5.4-14.8,13.2-16.6
			c0.5-0.1,0.9-0.7,0.8-1.2s-0.7-0.9-1.2-0.8C9.1,13.4,3,21.1,3,30v3.1C1.9,33.2,0.9,34,0.4,35C0.1,35.5,0,36.1,0,36.6V38
			c0,0.6,0.4,1,1,1h42c0.6,0,1-0.4,1-1v-1.4C44,36.1,43.9,35.5,43.6,35z"/>
	</g>
</g>
</svg>
