<?xml version="1.0" encoding="utf-8"?>
<!-- Generator: Adobe Illustrator 21.0.0, SVG Export Plug-In . SVG Version: 6.00 Build 0)  -->
<svg version="1.1" id="Layer_1" xmlns="http://www.w3.org/2000/svg" xmlns:xlink="http://www.w3.org/1999/xlink" x="0px" y="0px"
	 viewBox="0 0 50 50" style="enable-background:new 0 0 50 50;" xml:space="preserve">
<style type="text/css">
	.st0{fill:#F5F5F5;}
	.st1{clip-path:url(#SVGID_2_);fill:#9B9B9B;}
</style>
<rect x="-5" y="-5" class="st0" width="60" height="60"/>
<g>
	<defs>
		<path id="SVGID_1_" d="M47.5,53.8h-45v-5.4l15-9.6V35c-0.9,0-1.8-0.9-2.6-2.8c-0.8-1.9-1.2-3.4-1.2-4.7V20c0-3.1,1.1-5.8,3.3-8
			c2.2-2.2,4.8-3.3,7.9-3.3s5.8,1.1,8,3.3c2.2,2.2,3.3,4.9,3.3,8v7.5c0,1.3-0.4,2.8-1.2,4.7c-0.8,1.9-1.6,2.8-2.6,2.8v3.8l15,9.6
			V53.8z"/>
	</defs>
	<clipPath id="SVGID_2_">
		<use xlink:href="#SVGID_1_"  style="overflow:visible;"/>
	</clipPath>
	<rect x="-2.5" y="3.8" class="st1" width="55" height="55"/>
</g>
</svg>
