<?xml version="1.0" encoding="utf-8"?>
<!-- Generator: Adobe Illustrator 21.0.0, SVG Export Plug-In . SVG Version: 6.00 Build 0)  -->
<svg version="1.1" id="Layer_1" xmlns="http://www.w3.org/2000/svg" xmlns:xlink="http://www.w3.org/1999/xlink" x="0px" y="0px"
	 viewBox="0 0 252 60" style="enable-background:new 0 0 252 60;" xml:space="preserve">
<style type="text/css">
	.st0{fill:#FFFFFF;}
</style>
<g>
	<path class="st0" d="M27.9,39.5v0.8c0,1.5-1.2,2.7-2.7,2.7h-5.7c-1.5,0-2.7-1.2-2.7-2.6l0,0v-0.8h11.1V39.5z M27.8,23v6l0,0
		c0,2.7-2.1,5-4.8,5.4v-2.5c1.4-0.4,2.5-1.6,2.5-3.2l0,0V23H24v5.7l0,0c0,1-0.8,1.7-1.8,1.7s-1.7-0.8-1.8-1.7V23h-1.6v5.7l0,0
		c0,1.6,1.1,2.9,2.6,3.2v2.5c-2.7-0.4-4.8-2.7-4.8-5.4l0,0v-6H15v6l0,0c0,3.6,2.8,6.5,6.4,6.9v2h-4.8v-1.7H15v4l0,0
		c0,2.3,1.9,4.2,4.3,4.2H25c2.4,0,4.3-1.9,4.3-4.2v-4h-1.6v1.7h-4.8v-2c3.6-0.4,6.3-3.4,6.4-7l0,0V23H27.8z M15.1,17.1h14.3v-1.6
		H15.1V17.1z M15.1,20.8h14.3v-1.6H15.1V20.8z"/>
	<path class="st0" d="M44.4,39.5v0.8c0,1.5-1.2,2.7-2.7,2.7H36c-1.5,0-2.7-1.2-2.7-2.6l0,0v-0.8h11.1V39.5z M44.4,23v6l0,0
		c0,2.7-2.1,5-4.8,5.4v-2.5c1.4-0.4,2.5-1.6,2.5-3.2l0,0V23h-1.6v5.7l0,0c0,1-0.8,1.7-1.8,1.7s-1.7-0.8-1.8-1.7V23h-1.6v5.7l0,0
		c0,1.6,1.1,2.9,2.6,3.2v2.5c-2.7-0.4-4.8-2.7-4.8-5.4l0,0v-6h-1.6v6l0,0c0,3.6,2.8,6.5,6.4,6.9v2h-4.8v-1.7h-1.6v4l0,0
		c0,2.3,1.9,4.2,4.3,4.2h5.7c2.4,0,4.3-1.9,4.3-4.2l0,0v-4h-1.6v1.7h-4.8v-2c3.6-0.4,6.3-3.4,6.4-7l0,0V23H44.4z M31.7,17.1H46v-1.6
		H31.7V17.1z M31.7,20.8H46v-1.6H31.7V20.8z"/>
	<path class="st0" d="M41.7,10.9c2.6-1.2,5.7-1.3,8.4-0.2c-0.8-2.4-2.5-4.5-4.9-5.9s-5.1-1.7-7.6-1.2C40.1,5.4,41.5,8.1,41.7,10.9
		 M11.2,41c-2.9-0.3-5.6-1.6-7.4-3.9c-0.5,2.5-0.2,5.1,1.2,7.5s3.5,4,6,4.8C9.8,46.6,10,43.6,11.2,41 M49.9,19
		c2.9,0.3,5.6,1.6,7.4,4c0.5-2.5,0.2-5.1-1.2-7.5s-3.5-4-6-4.8C51.3,13.4,51.1,16.4,49.9,19 M8.2,30c-2.3-1.6-4-4.2-4.5-7.1
		C2,24.8,1,27.3,1,30s1,5.2,2.8,7.1C4.2,34.2,5.8,31.6,8.2,30 M52.9,30c2.3,1.6,4,4.2,4.4,7.1c1.7-1.9,2.8-4.4,2.8-7.1
		s-1-5.2-2.7-7.1C56.9,25.8,55.3,28.4,52.9,30 M49.9,41c1.2,2.6,1.3,5.6,0.2,8.3c2.4-0.8,4.6-2.4,6-4.8c1.4-2.4,1.7-5,1.2-7.5
		C55.5,39.4,52.8,40.8,49.9,41 M11.2,19c-1.2-2.6-1.4-5.6-0.3-8.3c-2.4,0.8-4.6,2.4-6,4.8s-1.7,5-1.2,7.5C5.6,20.6,8.3,19.2,11.2,19
		 M19.4,10.9c0.3-2.8,1.7-5.5,4-7.3c-2.5-0.5-5.2-0.2-7.6,1.2s-4.1,3.5-4.9,5.9C13.7,9.6,16.8,9.7,19.4,10.9 M41.7,49.1
		c-0.3,2.8-1.7,5.5-4,7.3c2.5,0.5,5.2,0.2,7.6-1.2c2.4-1.4,4-3.5,4.9-5.9C47.4,50.4,44.3,50.3,41.7,49.1 M30.6,52.1
		c-1.7,2.3-4.2,3.9-7.2,4.4c-2.3-1.8-3.7-4.5-4-7.3c-2.6,1.2-5.6,1.3-8.4,0.3c0.8,2.4,2.5,4.5,4.9,5.9s5.1,1.7,7.6,1.2
		c1.9,1.7,4.4,2.7,7.2,2.7s5.3-1,7.2-2.7C34.8,56,32.2,54.4,30.6,52.1 M30.6,8c1.7-2.3,4.2-3.9,7.2-4.4c-1.9-1.7-4.4-2.7-7.2-2.7
		s-5.3,1-7.2,2.7C26.3,4,28.9,5.6,30.6,8"/>
	<path class="st0" d="M97.5,7.8c-0.5-0.3-1.2-0.6-2.2-0.9c-0.9-0.3-1.9-0.4-3-0.4c-1,0-2,0.2-3,0.5s-1.9,0.8-2.6,1.5
		c-0.8,0.6-1.4,1.5-1.9,2.4c-0.5,1-0.7,2.1-0.7,3.4s0.2,2.4,0.7,3.4s1.1,1.8,1.9,2.4s1.7,1.1,2.6,1.5c1,0.3,2,0.5,3,0.5
		c1.2,0,2.3-0.1,3.1-0.3c0.9-0.2,1.6-0.5,2.2-0.9l-0.3,2.8c-0.7,0.3-1.4,0.6-2.2,0.7c-0.8,0.1-1.9,0.2-3.2,0.2
		c-1.3,0-2.6-0.2-3.9-0.7c-1.3-0.4-2.5-1.1-3.6-2s-1.9-2-2.6-3.3s-1-2.8-1-4.6c0-1.7,0.3-3.3,1-4.6s1.5-2.4,2.6-3.3s2.2-1.5,3.6-2
		c1.3-0.4,2.6-0.7,3.9-0.7c1.4,0,2.6,0.1,3.6,0.4s1.8,0.6,2.5,0.9L97.5,7.8z"/>
	<polygon class="st0" points="120.4,24.5 120.4,15.5 109.6,15.5 109.6,24.5 106.4,24.5 106.4,3.9 109.6,3.9 109.6,12.8 120.4,12.8 
		120.4,3.9 123.6,3.9 123.6,24.5 	"/>
	<rect x="133.1" y="3.9" class="st0" width="3.2" height="20.6"/>
	<path class="st0" d="M163.5,25l-9.8-10.6c-0.8-0.8-1.6-1.7-2.5-2.7s-1.6-1.9-2.4-2.7h-0.1c0,0.9,0.1,1.9,0.1,2.7v2.5v10.3h-3.2V3.9
		h2.2l9,9.7c0.3,0.3,0.6,0.7,1,1.1c0.4,0.4,0.8,0.8,1.1,1.3c0.4,0.4,0.8,0.9,1.2,1.3s0.7,0.9,1.1,1.2h0.1c0-0.8-0.1-1.6-0.1-2.5
		v-2.4V3.9h3.2V25H163.5z"/>
	<path class="st0" d="M188.6,24.4c-1.3,0.3-2.7,0.5-4.2,0.5c-1.4,0-2.8-0.2-4.2-0.7s-2.6-1.1-3.7-2c-1.1-0.9-2-2-2.6-3.3
		c-0.7-1.3-1-2.9-1-4.6c0-1.8,0.3-3.3,1-4.7c0.7-1.3,1.6-2.4,2.7-3.3c1.1-0.9,2.3-1.6,3.6-2s2.7-0.7,4-0.7c1.4,0,2.7,0.1,3.9,0.5
		c1.1,0.3,2.1,0.7,2.9,1.2l-0.6,2.8c-0.8-0.5-1.6-0.9-2.6-1.2c-1-0.3-2-0.5-3.2-0.5c-1,0-2,0.2-3,0.5s-1.9,0.8-2.7,1.5
		s-1.4,1.5-1.9,2.5s-0.7,2.2-0.7,3.5s0.2,2.5,0.7,3.5s1.1,1.8,1.9,2.5c0.8,0.7,1.7,1.2,2.7,1.5s2.1,0.5,3.1,0.5
		c1.9,0,3.4-0.4,4.4-1.1v-4.6h-4.8v-2.5h7.8v8.6C190.9,23.5,189.8,24,188.6,24.4"/>
	<polygon class="st0" points="95.3,56.5 95.3,47.5 84.5,47.5 84.5,56.5 81.3,56.5 81.3,35.9 84.5,35.9 84.5,44.8 95.3,44.8 
		95.3,35.9 98.5,35.9 98.5,56.5 	"/>
	<path class="st0" d="M124,52.5c-0.4,0.9-1,1.7-1.8,2.4s-1.7,1.2-2.7,1.5s-2.2,0.5-3.4,0.5c-1.2,0-2.4-0.2-3.4-0.5s-1.9-0.8-2.7-1.5
		c-0.8-0.7-1.4-1.5-1.8-2.4s-0.6-2-0.6-3.2V35.9h3.2v13c0,1.5,0.4,2.8,1.3,3.7c0.9,1,2.2,1.5,4,1.5s3.2-0.5,4.1-1.5s1.3-2.2,1.3-3.7
		v-13h3.1v13.3C124.7,50.5,124.5,51.5,124,52.5"/>
	<path class="st0" d="M142.7,43.7c-0.2-0.3-0.3-0.7-0.5-1.2s-0.3-0.9-0.4-1.3h-0.1c-0.1,0.4-0.2,0.9-0.4,1.3
		c-0.2,0.5-0.3,0.9-0.5,1.2l-2.1,5h6L142.7,43.7z M148.1,56.5l-2.3-5.3h-8.1l-2.3,5.3h-3.1l8.9-20.9h1.1l8.9,20.9H148.1z"/>
	<path class="st0" d="M176.8,57L167,46.4c-0.8-0.8-1.6-1.7-2.5-2.7s-1.6-1.9-2.4-2.7H162c0,0.9,0.1,1.9,0.1,2.7v2.5v10.3H159V35.9
		h2.2l9,9.7c0.3,0.3,0.6,0.7,1,1.1c0.4,0.4,0.8,0.8,1.1,1.3c0.4,0.4,0.8,0.9,1.2,1.3c0.4,0.4,0.7,0.9,1.1,1.2h0.1
		c0-0.8-0.1-1.6-0.1-2.5v-2.4v-9.8h3.2V57H176.8z"/>
	<path class="st0" d="M201.9,56.4c-1.3,0.3-2.7,0.5-4.2,0.5c-1.4,0-2.8-0.2-4.2-0.7s-2.6-1.1-3.7-2c-1.1-0.9-2-2-2.6-3.3
		c-0.7-1.3-1-2.9-1-4.6c0-1.8,0.3-3.3,1-4.7c0.7-1.3,1.6-2.4,2.7-3.3c1.1-0.9,2.3-1.6,3.6-2c1.3-0.5,2.7-0.7,4-0.7
		c1.4,0,2.7,0.1,3.9,0.5c1.1,0.3,2.1,0.7,2.9,1.2l-0.6,2.8c-0.8-0.5-1.6-0.9-2.6-1.2s-2-0.5-3.2-0.5c-1,0-2,0.2-3,0.5
		s-1.9,0.8-2.7,1.5s-1.4,1.5-1.9,2.5s-0.7,2.2-0.7,3.5s0.2,2.5,0.7,3.5s1.1,1.8,1.9,2.5c0.8,0.7,1.7,1.2,2.7,1.5s2.1,0.5,3.1,0.5
		c1.9,0,3.4-0.4,4.4-1.1v-4.6h-4.8v-2.5h7.8v8.6C204.2,55.5,203.1,56.1,201.9,56.4"/>
	<polygon class="st0" points="226.2,24.5 226.2,15.5 215.5,15.5 215.5,24.5 212.3,24.5 212.3,3.9 215.5,3.9 215.5,12.8 226.2,12.8 
		226.2,3.9 229.4,3.9 229.4,24.5 	"/>
	<polygon class="st0" points="238.6,24.5 238.6,3.9 249.9,3.9 249.9,6.6 241.8,6.6 241.8,12.8 248.5,12.8 248.5,15.5 241.8,15.5 
		241.8,21.8 251,21.8 251,24.5 	"/>
</g>
</svg>
