<?xml version="1.0" encoding="utf-8"?>
<!-- Generator: Adobe Illustrator 21.0.0, SVG Export Plug-In . SVG Version: 6.00 Build 0)  -->
<svg version="1.1" id="Layer_1" xmlns="http://www.w3.org/2000/svg" xmlns:xlink="http://www.w3.org/1999/xlink" x="0px" y="0px"
	 viewBox="0 0 200 118" style="enable-background:new 0 0 200 118;" xml:space="preserve">
<style type="text/css">
	.st0{fill:#FFFFFF;}
</style>
<g>
	<path class="st0" d="M115,14.6c3.5-1.6,7.6-1.8,11.3-0.3c-1.1-3.3-3.3-6.2-6.5-8c-3.2-1.8-6.8-2.3-10.2-1.6
		C112.8,7.1,114.6,10.8,115,14.6 M74,55.5c-3.8-0.3-7.5-2.2-10-5.3c-0.7,3.4-0.2,7,1.6,10.2c1.9,3.2,4.8,5.4,8,6.5
		C72.2,63.1,72.4,59,74,55.5 M125.9,25.6c3.8,0.4,7.5,2.2,10,5.4c0.7-3.4,0.2-7-1.6-10.2c-1.8-3.2-4.7-5.4-8-6.5
		C127.8,18,127.6,22.1,125.9,25.6 M70,40.6c-3.1-2.2-5.4-5.6-6-9.6c-2.3,2.6-3.7,5.9-3.7,9.6c0,3.7,1.4,7.1,3.7,9.6
		C64.7,46.2,66.9,42.8,70,40.6 M130,40.6c3.1,2.2,5.3,5.7,5.9,9.6c2.3-2.6,3.7-5.9,3.7-9.6c0-3.7-1.4-7.1-3.7-9.6
		C135.3,34.9,133.1,38.3,130,40.6 M126,55.5c1.6,3.5,1.8,7.6,0.3,11.3c3.3-1.1,6.2-3.3,8-6.5c1.8-3.2,2.3-6.8,1.6-10.2
		C133.4,53.3,129.8,55.2,126,55.5 M74,25.6c-1.6-3.5-1.8-7.6-0.4-11.3c-3.2,1.1-6.1,3.3-8,6.5c-1.9,3.2-2.3,6.8-1.6,10.2
		C66.6,27.8,70.2,25.9,74,25.6 M85,14.6c0.3-3.8,2.2-7.5,5.3-10c-3.4-0.7-7-0.2-10.2,1.6c-3.2,1.9-5.4,4.8-6.5,8
		C77.4,12.8,81.5,13,85,14.6 M115,66.5c-0.4,3.8-2.2,7.5-5.4,10c3.4,0.7,7,0.2,10.2-1.6c3.2-1.8,5.4-4.7,6.5-8
		C122.6,68.3,118.5,68.1,115,66.5 M100,70.5c-2.2,3.1-5.7,5.3-9.6,5.9c-3.1-2.5-5-6.1-5.4-10c-3.5,1.6-7.6,1.8-11.3,0.4
		c1.1,3.2,3.3,6.1,6.5,8c3.2,1.9,6.8,2.3,10.2,1.6c2.6,2.3,5.9,3.7,9.6,3.7c3.7,0,7.1-1.4,9.6-3.7C105.7,75.9,102.2,73.7,100,70.5
		 M100,10.6c2.2-3.1,5.6-5.4,9.6-6C107.1,2.4,103.7,1,100,1c-3.7,0-7.1,1.4-9.6,3.7C94.3,5.2,97.8,7.5,100,10.6"/>
	<path class="st0" d="M96.4,53.4v1c0,2-1.6,3.6-3.6,3.6h-7.7c-2,0-3.6-1.6-3.6-3.6h0v-1.1H96.4z M96.4,31.1v8.1h0
		c0,3.7-2.8,6.8-6.4,7.3v-3.4c1.9-0.5,3.4-2.2,3.4-4.3h0v-7.7h-2.1v7.7h0c0,1.3-1.1,2.4-2.4,2.4c-1.3,0-2.3-1-2.3-2.3V31h-2.1v7.7h0
		c0,2.1,1.5,3.9,3.4,4.3v3.4c-3.6-0.5-6.4-3.6-6.4-7.4h0v-8h-2.1v8.1h0c0.1,4.9,3.8,8.9,8.5,9.4v2.7h-6.4v-2.3h-2.1v5.4h0
		c0,3.2,2.6,5.8,5.8,5.8h7.7c3.2,0,5.7-2.6,5.8-5.7h0v-5.5h-2.1v2.3H90v-2.7c4.8-0.5,8.5-4.6,8.5-9.5h0v-8.1H96.4z M98.5,20.9H79.3
		V23h19.2V20.9z M98.5,26H79.3v2.1h19.2V26z"/>
	<path class="st0" d="M118.6,53.4v1c0,2-1.6,3.6-3.6,3.6h-7.7c-2,0-3.6-1.6-3.6-3.6h0v-1.1H118.6z M118.5,31.1v8.1h0
		c0,3.7-2.8,6.8-6.4,7.3v-3.4c1.9-0.5,3.4-2.2,3.4-4.3h0v-7.7h-2.1v7.7h0c0,1.3-1.1,2.4-2.4,2.4c-1.3,0-2.3-1-2.3-2.3V31h-2.1v7.7h0
		c0,2.1,1.5,3.9,3.4,4.3v3.4c-3.6-0.5-6.4-3.6-6.4-7.4h0v-8h-2.1v8.1h0c0.1,4.9,3.8,8.9,8.5,9.4v2.7h-6.4v-2.3h-2.1v5.4h0
		c0,3.2,2.6,5.8,5.8,5.8h7.7c3.2,0,5.7-2.6,5.8-5.7h0v-5.5h-2.1v2.3h-6.4v-2.7c4.8-0.5,8.5-4.6,8.5-9.5h0v-8.1H118.5z M120.7,20.9
		h-19.2V23h19.2V20.9z M120.7,26h-19.2v2.1h19.2V26z"/>
	<path class="st0" d="M11.4,106.1c-0.3-0.2-0.8-0.4-1.4-0.6c-0.6-0.2-1.2-0.3-1.9-0.3c-0.6,0-1.3,0.1-1.9,0.3
		c-0.6,0.2-1.2,0.5-1.7,0.9c-0.5,0.4-0.9,0.9-1.2,1.5c-0.3,0.6-0.5,1.3-0.5,2.2c0,0.8,0.1,1.5,0.4,2.2c0.3,0.6,0.7,1.1,1.2,1.5
		c0.5,0.4,1,0.7,1.7,0.9c0.6,0.2,1.3,0.3,1.9,0.3c0.8,0,1.4-0.1,2-0.2c0.5-0.1,1-0.3,1.4-0.5l-0.2,1.8c-0.4,0.2-0.9,0.4-1.4,0.5
		c-0.5,0.1-1.2,0.1-2,0.1c-0.8,0-1.6-0.1-2.5-0.4c-0.8-0.3-1.6-0.7-2.2-1.3c-0.7-0.6-1.2-1.3-1.6-2.1c-0.4-0.8-0.6-1.8-0.6-2.9
		c0-1.1,0.2-2.1,0.6-2.9c0.4-0.8,1-1.5,1.6-2.1c0.7-0.6,1.4-1,2.2-1.3c0.8-0.3,1.6-0.4,2.5-0.4c0.9,0,1.7,0.1,2.3,0.2
		c0.6,0.2,1.1,0.4,1.5,0.6L11.4,106.1z"/>
	<polygon class="st0" points="25.9,116.8 25.9,111 19.1,111 19.1,116.8 17.1,116.8 17.1,103.6 19.1,103.6 19.1,109.3 25.9,109.3 
		25.9,103.6 27.8,103.6 27.8,116.8 	"/>
	<rect x="33.8" y="103.6" class="st0" width="2" height="13.2"/>
	<path class="st0" d="M53,117l-6.2-6.7c-0.5-0.5-1-1.1-1.5-1.7c-0.5-0.6-1-1.2-1.5-1.7l0,0c0,0.6,0,1.2,0,1.7v1.6v6.6h-2v-13.2h1.4
		l5.7,6.2c0.2,0.2,0.4,0.4,0.6,0.7c0.2,0.3,0.5,0.5,0.7,0.8c0.2,0.3,0.5,0.6,0.7,0.8c0.2,0.3,0.5,0.5,0.7,0.8l0,0c0-0.5,0-1,0-1.6
		v-1.5v-6.2h2V117H53z"/>
	<path class="st0" d="M68.7,116.7c-0.8,0.2-1.7,0.3-2.7,0.3c-0.9,0-1.8-0.1-2.6-0.4c-0.9-0.3-1.6-0.7-2.3-1.3
		c-0.7-0.6-1.2-1.3-1.6-2.1c-0.4-0.9-0.6-1.8-0.6-2.9c0-1.1,0.2-2.1,0.6-3c0.4-0.9,1-1.6,1.7-2.1c0.7-0.6,1.4-1,2.3-1.3
		c0.8-0.3,1.7-0.4,2.5-0.4c0.9,0,1.7,0.1,2.4,0.3c0.7,0.2,1.3,0.4,1.8,0.8l-0.4,1.8c-0.5-0.3-1-0.6-1.7-0.8c-0.6-0.2-1.3-0.3-2-0.3
		c-0.6,0-1.3,0.1-1.9,0.3c-0.6,0.2-1.2,0.5-1.7,1c-0.5,0.4-0.9,1-1.2,1.6c-0.3,0.6-0.5,1.4-0.5,2.3c0,0.9,0.2,1.6,0.5,2.2
		c0.3,0.6,0.7,1.2,1.2,1.6c0.5,0.4,1.1,0.7,1.7,0.9c0.6,0.2,1.3,0.3,2,0.3c1.2,0,2.1-0.2,2.8-0.7v-2.9h-3v-1.6h4.9v5.5
		C70.2,116.1,69.5,116.5,68.7,116.7"/>
	<polygon class="st0" points="93.1,116.8 93.1,111 86.3,111 86.3,116.8 84.3,116.8 84.3,103.6 86.3,103.6 86.3,109.3 93.1,109.3 
		93.1,103.6 95.1,103.6 95.1,116.8 	"/>
	<polygon class="st0" points="100.8,116.8 100.8,103.6 107.9,103.6 107.9,105.3 102.8,105.3 102.8,109.3 107.1,109.3 107.1,111 
		102.8,111 102.8,115 108.7,115 108.7,116.8 	"/>
	<polygon class="st0" points="129.8,116.8 129.8,111 123,111 123,116.8 121,116.8 121,103.6 123,103.6 123,109.3 129.8,109.3 
		129.8,103.6 131.8,103.6 131.8,116.8 	"/>
	<path class="st0" d="M147.9,114.2c-0.3,0.6-0.6,1.1-1.1,1.5c-0.5,0.4-1,0.7-1.7,1c-0.7,0.2-1.4,0.3-2.1,0.3c-0.8,0-1.5-0.1-2.1-0.3
		c-0.7-0.2-1.2-0.5-1.7-1c-0.5-0.4-0.9-0.9-1.1-1.5c-0.3-0.6-0.4-1.3-0.4-2.1v-8.5h2v8.3c0,1,0.3,1.8,0.8,2.4
		c0.6,0.6,1.4,0.9,2.5,0.9c1.1,0,2-0.3,2.6-0.9c0.6-0.6,0.8-1.4,0.8-2.4v-8.3h1.9v8.5C148.3,112.9,148.2,113.6,147.9,114.2"/>
	<path class="st0" d="M159.7,108.5c-0.1-0.2-0.2-0.5-0.3-0.8c-0.1-0.3-0.2-0.6-0.3-0.8h0c-0.1,0.3-0.2,0.6-0.3,0.8
		c-0.1,0.3-0.2,0.5-0.3,0.8l-1.3,3.2h3.8L159.7,108.5z M163.1,116.8l-1.4-3.4h-5.1l-1.4,3.4h-2l5.6-13.3h0.7l5.6,13.3H163.1z"/>
	<path class="st0" d="M181.1,117l-6.2-6.7c-0.5-0.5-1-1.1-1.5-1.7c-0.5-0.6-1-1.2-1.5-1.7l0,0c0,0.6,0,1.2,0,1.7v1.6v6.6h-2v-13.2
		h1.4l5.7,6.2c0.2,0.2,0.4,0.4,0.6,0.7c0.2,0.3,0.5,0.5,0.7,0.8c0.2,0.3,0.5,0.6,0.7,0.8c0.2,0.3,0.5,0.5,0.7,0.8l0,0
		c0-0.5,0-1,0-1.6v-1.5v-6.2h2V117H181.1z"/>
	<path class="st0" d="M196.9,116.7c-0.8,0.2-1.7,0.3-2.7,0.3c-0.9,0-1.8-0.1-2.6-0.4c-0.9-0.3-1.6-0.7-2.3-1.3
		c-0.7-0.6-1.2-1.3-1.6-2.1c-0.4-0.9-0.6-1.8-0.6-2.9c0-1.1,0.2-2.1,0.6-3c0.4-0.9,1-1.6,1.7-2.1c0.7-0.6,1.4-1,2.3-1.3
		c0.8-0.3,1.7-0.4,2.5-0.4c0.9,0,1.7,0.1,2.4,0.3c0.7,0.2,1.3,0.4,1.8,0.8l-0.4,1.8c-0.5-0.3-1-0.6-1.7-0.8c-0.6-0.2-1.3-0.3-2-0.3
		c-0.6,0-1.3,0.1-1.9,0.3c-0.6,0.2-1.2,0.5-1.7,1c-0.5,0.4-0.9,1-1.2,1.6c-0.3,0.6-0.5,1.4-0.5,2.3c0,0.9,0.2,1.6,0.5,2.2
		c0.3,0.6,0.7,1.2,1.2,1.6c0.5,0.4,1.1,0.7,1.7,0.9c0.6,0.2,1.3,0.3,2,0.3c1.2,0,2.1-0.2,2.8-0.7v-2.9h-3v-1.6h4.9v5.5
		C198.4,116.1,197.7,116.5,196.9,116.7"/>
</g>
</svg>
