<?xml version="1.0" encoding="utf-8"?>
<!-- Generator: Adobe Illustrator 21.0.0, SVG Export Plug-In . SVG Version: 6.00 Build 0)  -->
<svg version="1.1" id="Layer_1" xmlns="http://www.w3.org/2000/svg" xmlns:xlink="http://www.w3.org/1999/xlink" x="0px" y="0px"
	 viewBox="0 0 60 60" style="enable-background:new 0 0 60 60;" xml:space="preserve">
<style type="text/css">
	.st0{fill-rule:evenodd;clip-rule:evenodd;fill:#00958F;}
</style>
<g>
	<path class="st0" d="M27.3,39.5v0.8c0,1.5-1.2,2.7-2.8,2.7h-5.8c-1.5,0-2.7-1.2-2.8-2.6h0v-0.8H27.3z M27.2,23V29h0
		c0,2.7-2.1,5-4.9,5.4v-2.5c1.5-0.4,2.6-1.6,2.6-3.2h0V23h-1.6v5.7h0c0,1-0.8,1.7-1.8,1.7c-1,0-1.8-0.8-1.8-1.7V23h-1.6v5.7h0
		c0,1.6,1.1,2.9,2.6,3.2v2.5c-2.7-0.4-4.9-2.7-4.9-5.4h0V23h-1.6v6h0c0,3.6,2.9,6.5,6.5,6.9v2h-4.9v-1.7h-1.6v4h0
		c0,2.3,2,4.2,4.4,4.2h5.8c2.4,0,4.3-1.9,4.4-4.2v-4h-1.6v1.7h-4.9v-2c3.6-0.4,6.4-3.4,6.5-7h0V23H27.2z M14.3,17.1h14.5v-1.6H14.3
		V17.1z M14.3,20.8h14.5v-1.6H14.3V20.8z"/>
	<path class="st0" d="M44.1,39.5v0.8c0,1.5-1.2,2.7-2.8,2.7h-5.8c-1.5,0-2.7-1.2-2.8-2.6h0v-0.8H44.1z M44,23V29h0
		c0,2.7-2.1,5-4.9,5.4v-2.5c1.5-0.4,2.6-1.6,2.6-3.2h0V23h-1.6v5.7h0c0,1-0.8,1.7-1.8,1.7c-1,0-1.8-0.8-1.8-1.7V23H35v5.7h0
		c0,1.6,1.1,2.9,2.6,3.2v2.5c-2.7-0.4-4.9-2.7-4.9-5.4h0V23h-1.6v6h0c0,3.6,2.9,6.5,6.5,6.9v2h-4.9v-1.7h-1.6v4h0
		c0,2.3,2,4.2,4.4,4.2h5.8c2.4,0,4.3-1.9,4.4-4.2h0v-4h-1.6v1.7h-4.8v-2c3.6-0.4,6.4-3.4,6.5-7h0V23H44z M31.1,17.1h14.5v-1.6H31.1
		V17.1z M31.1,20.8h14.5v-1.6H31.1V20.8z"/>
	<path class="st0" d="M41.3,10.9c2.6-1.2,5.7-1.3,8.6-0.2c-0.8-2.4-2.5-4.5-4.9-5.9c-2.4-1.4-5.2-1.7-7.7-1.2
		C39.7,5.4,41.1,8.1,41.3,10.9 M10.3,41c-2.9-0.3-5.7-1.6-7.6-3.9c-0.5,2.5-0.2,5.1,1.2,7.5c1.4,2.4,3.6,4,6.1,4.8
		C9,46.6,9.1,43.6,10.3,41 M49.7,19c2.9,0.3,5.7,1.6,7.6,4c0.5-2.5,0.2-5.1-1.2-7.5c-1.4-2.4-3.6-4-6-4.8C51,13.4,50.9,16.4,49.7,19
		 M7.3,30c-2.4-1.6-4.1-4.2-4.5-7.1C1.1,24.8,0,27.3,0,30c0,2.7,1.1,5.2,2.8,7.1C3.2,34.2,4.9,31.6,7.3,30 M52.7,30
		c2.4,1.6,4,4.2,4.5,7.1c1.7-1.9,2.8-4.4,2.8-7.1c0-2.7-1.1-5.2-2.8-7.1C56.8,25.8,55.1,28.4,52.7,30 M49.7,41
		c1.2,2.6,1.4,5.6,0.2,8.3c2.5-0.8,4.7-2.4,6.1-4.8c1.4-2.4,1.8-5,1.2-7.5C55.3,39.4,52.6,40.8,49.7,41 M10.3,19
		c-1.2-2.6-1.4-5.6-0.3-8.3c-2.5,0.8-4.6,2.4-6,4.8c-1.4,2.4-1.8,5-1.2,7.5C4.7,20.6,7.4,19.2,10.3,19 M18.6,10.9
		c0.3-2.8,1.7-5.5,4.1-7.3c-2.5-0.5-5.3-0.2-7.7,1.2c-2.4,1.4-4.1,3.5-4.9,5.9C12.9,9.6,16,9.7,18.6,10.9 M41.4,49.1
		c-0.3,2.8-1.7,5.5-4.1,7.3c2.5,0.5,5.3,0.2,7.7-1.2c2.4-1.4,4.1-3.5,4.9-5.9C47.1,50.4,44,50.3,41.4,49.1 M30,52.1
		c-1.7,2.3-4.3,3.9-7.3,4.4c-2.4-1.8-3.8-4.5-4.1-7.3c-2.6,1.2-5.7,1.3-8.6,0.3c0.8,2.4,2.5,4.5,4.9,5.9c2.4,1.4,5.2,1.7,7.7,1.2
		c1.9,1.7,4.5,2.7,7.3,2.7c2.8,0,5.3-1,7.3-2.7C34.3,56,31.7,54.4,30,52.1 M30,8c1.7-2.3,4.3-3.9,7.3-4.4c-1.9-1.7-4.5-2.7-7.3-2.7
		c-2.8,0-5.4,1-7.3,2.7C25.7,4,28.3,5.6,30,8"/>
</g>
</svg>
